<svg xmlns="http://www.w3.org/2000/svg" viewBox="0 0 900 620" role="img" aria-labelledby="title desc">
  <title id="title">Theme park map placeholder</title>
  <desc id="desc">A colourful illustrated map-style placeholder with paths, water, gardens, buildings, and coaster tracks.</desc>
  <rect width="900" height="620" fill="#bfe6aa"/>
  <path d="M0 460c120-80 210-70 330-18 130 56 260 60 390-14 68-39 121-57 180-47v239H0Z" fill="#8fce75"/>
  <path d="M116 183c126-80 222-67 274-8 55 63 16 154 80 203 67 51 180-4 238 53 39 38 35 88 20 122" fill="none" stroke="#f6f1dc" stroke-width="42" stroke-linecap="round"/>
  <path d="M116 183c126-80 222-67 274-8 55 63 16 154 80 203 67 51 180-4 238 53 39 38 35 88 20 122" fill="none" stroke="#d9c48b" stroke-width="5" stroke-dasharray="14 20"/>
  <ellipse cx="472" cy="266" rx="120" ry="74" fill="#62c7de"/>
  <ellipse cx="626" cy="169" rx="74" ry="48" fill="#64c5df"/>
  <g fill="#f8df7a" stroke="#bf8d32" stroke-width="6">
    <path d="M182 295h106v98H182Z"/>
    <path d="M196 295l39-55 39 55Z"/>
    <path d="M578 282h126v90H578Z"/>
    <path d="M604 282l37-45 37 45Z"/>
    <path d="M356 418h96v76h-96Z"/>
  </g>
  <g fill="none" stroke-linecap="round" stroke-linejoin="round">
    <path d="M63 120c38-76 92-75 132 0s94 75 132 0 93-76 132 0" stroke="#f27a54" stroke-width="15"/>
    <path d="M63 120c38-76 92-75 132 0s94 75 132 0 93-76 132 0" stroke="#0b6ff2" stroke-width="6"/>
    <path d="M666 82c36 16 56 47 56 88s-20 72-56 88" stroke="#702b91" stroke-width="15"/>
    <path d="M666 82c36 16 56 47 56 88s-20 72-56 88" stroke="#ffd34d" stroke-width="6"/>
  </g>
  <g fill="#2fa14f">
    <circle cx="119" cy="424" r="26"/><circle cx="151" cy="407" r="22"/><circle cx="750" cy="312" r="28"/>
    <circle cx="793" cy="328" r="20"/><circle cx="319" cy="89" r="27"/><circle cx="773" cy="122" r="24"/>
  </g>
  <g fill="#ffffff" opacity=".9">
    <circle cx="473" cy="266" r="34"/><circle cx="626" cy="169" r="22"/><circle cx="235" cy="352" r="22"/>
  </g>
</svg>
